# xmcd
#
# Track frame offsets:
#	150
#	20007
#	38322
#	54932
#	71417
#	89872
#	108637
#	126917
#	145270
#	163295
#	179435
#	197160
#	212705
#
# Disc length: 3107 seconds
#
# Revision: 3
# Processed by: cddbd v1.5.1PL0 Copyright (c) Steve Scherf et al.
# Submitted via: EasyCDDAExtractor 8.2.1.1
#
DISCID=c10c210d
DTITLE=акениоу ваяис - ыс тгм айяг тоу оуяамоу соу
DYEAR=2003
DGENRE=емтевмо
TTITLE0=то йула
TTITLE1=апоье хекы ма пиы
TTITLE2=г ваяа жеямеи ваяа
TTITLE3=то поку лафи сйотымеи
TTITLE4=есу ле неяеис пио поку
TTITLE5=ои жикои лоу ваяалата
TTITLE6=лиа леяа лета
TTITLE7=ока еимаи сто луако
TTITLE8=ма ле кеме лаяиа
TTITLE9=та йакутеяа ха 'яхоум
TTITLE10=ха лецакымоуле лафи
TTITLE11=ема килами г ацйакиа лоу
TTITLE12=евы лиа ацапг циа сема
EXTD=
EXTT0=
EXTT1=
EXTT2=
EXTT3=
EXTT4=
EXTT5=
EXTT6=
EXTT7=
EXTT8=
EXTT9=
EXTT10=
EXTT11=
EXTT12=
PLAYORDER=
